<svg id="图层_1" data-name="图层 1" xmlns="http://www.w3.org/2000/svg" xmlns:xlink="http://www.w3.org/1999/xlink" viewBox="0 0 1083.55 1059.19"><defs><style>.cls-1{fill:none;}.cls-2{clip-path:url(#clip-path);}.cls-3{fill:#f2f2f2;}.cls-4{fill:#2f2e41;}.cls-5{fill:#ffd2d2;}.cls-6{fill:#63ffb1;}.cls-7{fill:#ccc;}.cls-8{opacity:0.3;}.cls-8,.cls-9{isolation:isolate;}.cls-9{opacity:0.1;}.cls-10{fill:#3f3d56;}</style><clipPath id="clip-path" transform="translate(2.28 -0.54)"><rect class="cls-1" x="0.42" width="1079.58" height="1079.58"/></clipPath></defs><title>logo</title><g class="cls-2"><circle class="cls-3" cx="250.63" cy="808.55" r="250.63"/></g><g class="cls-2"><path class="cls-4" d="M551.49,1059.73C259,1059.73,21.9,822.63,21.9,530.13S259,.54,551.49.54s529.77,237.1,529.77,529.59a529.51,529.51,0,0,1-529.77,529.6Zm0-1055.22C261.7,4.51,25.87,240.35,25.87,530.13s235.83,525.63,525.62,525.63,525.62-235.84,525.62-525.63S841.46,4.51,551.49,4.51Z" transform="translate(2.28 -0.54)"/></g><g class="cls-2"><path class="cls-5" d="M446.65,51.61,168.78,830.39a19.6,19.6,0,0,0,22.37,25.8l830-163.3a19.59,19.59,0,0,0,10.82-32.3L479.85,44.93A19.82,19.82,0,0,0,446.65,51.61Z" transform="translate(2.28 -0.54)"/></g><g class="cls-2"><polygon class="cls-6" points="829.85 697.22 829.67 697.22 568.75 842.66 282.75 699.75 277.88 697.22 292.68 400.58 550.88 216.53 553.77 218.33 820.82 385.6 829.85 697.22"/></g><g class="cls-2"><path class="cls-7" d="M551.49,1037.53v-3.43c6.68,0,13.53-.18,20.21-.36l.18,3.43C565.2,1037.35,558.17,1037.53,551.49,1037.53Zm-20.39-.36c-6.68-.18-13.71-.72-20.39-1.26l.18-3.43c6.68.54,13.53.9,20.21,1.26Zm61.17-1.26-.18-3.43c6.68-.54,13.53-1.26,20.21-2l.36,3.42c-6.68.73-13.53,1.45-20.39,2Zm-101.95-2c-6.68-.72-13.53-1.8-20.21-2.88l.54-3.43c6.68,1.08,13.35,2,20,2.89ZM632.87,1031l-.54-3.43c6.67-1.08,13.35-2.35,20-3.61l.72,3.25c-6.86,1.44-13.54,2.7-20.21,3.79Zm-182.79-3.61c-6.67-1.26-13.35-2.89-20-4.51l.73-3.25c6.49,1.62,13.17,3.07,19.84,4.51Zm222.85-4.51-.73-3.25c6.5-1.62,13.18-3.43,19.67-5.23l.9,3.24C686.1,1019.49,679.42,1021.29,672.93,1022.92Zm-262.54-5.24c-6.5-1.8-13.18-4-19.49-6.13l1.08-3.25c6.32,2.17,13,4.15,19.31,6Zm301.69-6.13L711,1008.3c6.31-2.16,12.81-4.51,19.13-6.86l1.26,3.25C725.07,1007,718.58,1009.38,712.08,1011.55Zm-340.49-6.68c-6.31-2.34-12.81-5-18.95-7.58l1.27-3.06c6.13,2.7,12.63,5.23,18.94,7.58Zm378.75-7.94-1.27-3.06c6.14-2.71,12.45-5.42,18.41-8.3l1.44,3.06C762.79,991.52,756.47,994.41,750.34,996.93Zm-416.46-8.12c-6.14-2.88-12.27-5.95-18.23-9.2l1.63-3.07c6,3.07,12.09,6.14,18.22,9Zm453.27-9.38-1.63-3.07c6-3.06,11.91-6.49,17.68-9.74l1.63,2.89c-5.78,3.43-11.73,6.85-17.68,9.92Zm-489.54-9.74c-5.95-3.43-11.73-7-17.5-10.65l1.8-2.89c5.6,3.61,11.55,7.22,17.32,10.47ZM822.33,959l-1.8-2.89c5.59-3.6,11.36-7.39,17-11.18l2,2.7c-5.59,4-11.36,7.76-17.14,11.37ZM263,947.85c-5.6-3.79-11.19-7.94-16.61-11.9l2-2.71c5.41,4,11,8.12,16.42,11.91Zm592.92-11.91-2-2.7c5.41-4,10.64-8.3,15.88-12.45l2.16,2.7c-5.23,4.15-10.64,8.3-16.06,12.45ZM230.31,923.31c-5.24-4.33-10.47-8.66-15.52-13.17l2.16-2.52c5.06,4.51,10.29,8.84,15.52,13.17ZM887.65,910l-2.16-2.52c5-4.52,10.1-9,15-13.72l2.35,2.53c-5,4.69-10.11,9.2-15.16,13.71ZM199.81,896.25c-4.87-4.69-9.74-9.57-14.43-14.44l2.52-2.34c4.69,4.87,9.57,9.74,14.44,14.43Zm717.25-14.44-2.52-2.34c4.69-4.87,9.38-9.93,13.71-15l2.53,2.17c-4.33,5.23-9,10.28-13.72,15.15ZM171.48,866.66c-4.51-5.06-9-10.29-13.17-15.52L161,849c4.33,5.24,8.66,10.47,13.17,15.52Zm772.65-15.52L941.42,849c4.33-5.23,8.48-10.64,12.45-16.06l2.71,2c-3.79,5.59-8.12,11-12.45,16.24ZM145.68,835.08c-4.15-5.41-8.12-11-11.91-16.6l2.71-2c3.79,5.6,7.76,11,11.91,16.42Zm823-16.6-2.71-2c3.79-5.59,7.58-11.18,11.19-17l2.89,1.81c-3.61,5.77-7.4,11.54-11.37,17.14Zm-846.27-17c-3.61-5.78-7.22-11.55-10.64-17.51l2.88-1.62c3.43,5.77,6.86,11.73,10.47,17.32ZM990.68,784l-2.89-1.62c3.43-5.77,6.68-11.91,9.75-17.86l3.07,1.62c-3.25,6-6.5,11.91-9.93,17.86ZM102,766.33c-3.07-6-6.31-12.09-9.2-18.22l3.07-1.45c2.88,6.14,6,12.09,9,18.05Zm907.62-18.58-3.07-1.45c2.89-6.13,5.77-12.27,8.3-18.58l3.07,1.26c-2.53,6.32-5.23,12.63-8.3,18.77ZM84.51,729.52q-4.07-9.46-7.58-18.95l3.25-1.26c2.34,6.32,4.87,12.63,7.58,18.77ZM1025.69,710l-3.25-1.26c2.35-6.32,4.69-12.81,6.86-19.13l3.24,1.09c-2,6.49-4.33,13-6.85,19.3ZM69.89,691.27c-2.16-6.5-4.15-13-6.13-19.49l3.25-.9c1.8,6.49,4,13,6.13,19.31Zm968.79-20-3.25-.9c1.81-6.5,3.61-13,5.23-19.67l3.25.72c-1.62,6.68-3.25,13.35-5.23,19.85ZM58.53,652.11c-1.63-6.67-3.07-13.35-4.51-19.85l3.24-.72c1.27,6.68,2.89,13.17,4.51,19.85Zm989.89-20.57-3.24-.72c1.26-6.68,2.52-13.35,3.6-20l3.43.54c-1.26,6.86-2.34,13.72-3.79,20.21Zm-998-19.49c-1.09-6.67-2-13.53-2.89-20.21l3.43-.36c.9,6.68,1.8,13.54,2.88,20ZM1054.92,591.3l-3.43-.36c.72-6.67,1.44-13.53,2-20.21l3.42.18c-.36,6.86-1.08,13.54-2,20.39ZM45.53,571.46c-.54-6.68-.9-13.54-1.26-20.39l3.43-.19c.36,6.68.72,13.54,1.26,20.21Zm1012.64-20.94-3.43-.18c.18-6.67.36-13.53.36-20.21v-1.08h3.43v1.08c0,6.68,0,13.72-.36,20.39Zm-1011-19.84H43.73v-.55c0-6.67.18-13.35.36-19.84l3.43.18c-.18,6.49-.36,13.17-.36,19.66Zm1007.58-22c-.36-6.67-.72-13.53-1.26-20.21l3.42-.36c.54,6.86.91,13.72,1.27,20.39Zm-1006-18.58-3.43-.18c.55-6.86,1.27-13.54,2-20.39l3.43.36C49.87,476.54,49.32,483.4,48.78,490.08Zm1002.71-21.84c-.9-6.67-1.8-13.35-2.89-20l3.43-.54c1.08,6.68,2,13.54,2.89,20.21Zm-998-18.4-3.42-.54c1.08-6.68,2.34-13.54,3.6-20l3.25.72C55.82,436.49,54.56,443.16,53.47,449.84ZM1045,428.19c-1.44-6.68-2.88-13.36-4.51-19.85l3.25-.91c1.63,6.5,3.07,13.36,4.51,19.85ZM61.59,410.14l-3.24-.72c1.62-6.5,3.42-13.17,5.23-19.67l3.25.9c-2,6.32-3.61,12.82-5.24,19.49Zm973.48-21.29c-1.8-6.5-4-13-6.13-19.31l3.24-1.08c2.17,6.5,4.15,13,6.14,19.49ZM72.78,371l-3.25-1.09c2.17-6.49,4.51-13,6.86-19.3l3.25,1.26C77.29,358.17,75,364.67,72.78,371Zm949.48-20.57c-2.35-6.32-4.87-12.64-7.58-18.77l3.07-1.26c2.7,6.13,5.23,12.63,7.58,18.94Zm-935-17.33-3.07-1.26c2.71-6.32,5.41-12.45,8.48-18.59l3.07,1.45c-3.07,5.95-6,12.09-8.48,18.4Zm919-19.85c-2.89-6.13-6-12.08-9-18l3.07-1.62c3.24,5.95,6.31,12.09,9.2,18.22Zm-901.66-17-3.07-1.62c3.07-6,6.5-12.09,9.93-17.86l2.88,1.62-9.74,17.86Zm882.89-18.94C984,271.56,980.58,265.61,977,260l2.89-1.8c3.6,5.77,7.21,11.55,10.64,17.5ZM124.93,261.1,122,259.29c3.61-5.77,7.4-11.55,11.37-17.14l2.71,2c-3.79,5.59-7.58,11.18-11.19,17ZM965.6,243.23c-3.79-5.59-7.76-11-11.91-16.42l2.71-2c4.15,5.41,8.12,11,11.91,16.6ZM148,227.72l-2.7-2c4.15-5.41,8.3-10.83,12.63-16.06l2.71,2.17c-4.34,5-8.67,10.46-12.64,15.88Zm793.22-17c-4.33-5.23-8.66-10.46-13.17-15.33l2.53-2.17c4.51,5.05,9,10.29,13.17,15.52ZM173.65,196.14,171.12,194c4.51-5.05,9.2-10.1,13.9-15l2.52,2.34c-4.87,4.87-9.38,9.75-13.89,14.8Zm740.53-15.7c-4.7-4.87-9.57-9.74-14.44-14.25l2.35-2.53c4.87,4.69,9.74,9.56,14.43,14.43ZM201.8,166.91l-2.35-2.53c4.87-4.69,9.92-9.38,15-13.89l2.16,2.52c-5.05,4.51-9.92,9.21-14.79,13.9Zm683.14-14.44c-5.05-4.51-10.28-8.84-15.51-13.17l2.16-2.71c5.23,4.33,10.47,8.66,15.52,13.18ZM232.11,140l-2.17-2.52c5.24-4.33,10.65-8.49,16.06-12.64l2,2.71c-5.23,4-10.65,8.12-15.88,12.45Zm621.26-13.35c-5.42-4-11-8.12-16.42-11.91l2-2.71c5.6,3.79,11.19,7.94,16.6,11.91Zm-589-11.19-2-2.7c5.6-3.79,11.37-7.58,17-11.37l1.8,2.88c-5.41,3.61-11.19,7.4-16.78,11.19ZM820,103.75c-5.78-3.61-11.55-7.21-17.33-10.46l1.63-2.89c6,3.43,11.73,7,17.5,10.65Zm-521.3-9.92-1.62-2.89c5.77-3.43,11.91-6.67,17.86-9.92l1.63,3.07q-9.21,4.59-17.87,9.74ZM784.8,83.36c-6-3.06-12.09-6.13-18.23-9L768,71.27q9.19,4.33,18.4,9.21ZM334.42,74.88,333,71.82c6.13-2.89,12.27-5.78,18.58-8.49l1.26,3.07c-6.13,2.89-12.27,5.6-18.4,8.48ZM748,66c-6.14-2.71-12.63-5.23-19-7.58l1.27-3.25c6.31,2.35,12.81,5.06,18.94,7.58ZM371.77,59l-1.26-3.24c6.31-2.35,12.81-4.7,19.3-6.86l1.09,3.25c-6.5,2.16-12.81,4.51-19.13,6.85Zm338.15-7.39c-6.32-2.17-13-4.15-19.31-6l.9-3.25c6.5,1.81,13,4,19.49,6ZM410.2,46l-.9-3.25c6.5-1.8,13.17-3.6,19.67-5.23l.9,3.25C423.2,42.4,416.7,44.21,410.2,46Zm260.74-5.59c-6.49-1.63-13.17-3.07-19.85-4.33l.72-3.25c6.68,1.26,13.36,2.89,20,4.51Zm-221.4-4.15L448.82,33c6.68-1.44,13.35-2.53,20-3.61l.54,3.43C462.89,33.74,456.22,35,449.54,36.27Zm181.7-3.79q-10-1.62-20-2.71l.36-3.43c6.67.73,13.53,1.81,20.21,2.89ZM489.6,29.77l-.36-3.43c6.67-.9,13.53-1.44,20.39-2l.36,3.43c-6.86.54-13.72,1.26-20.39,2Zm101.23-2.16c-6.68-.54-13.54-.9-20.21-1.09l.18-3.42c6.85.18,13.71.72,20.39,1.26ZM530,26.52l-.18-3.42c6.67-.36,13.71-.36,20.39-.36v3.42c-6.68,0-13.36.18-20.21.36Z" transform="translate(2.28 -0.54)"/></g><g class="cls-2"><polygon class="cls-8" points="829.67 697.22 568.75 842.66 282.75 699.75 536.09 522.2 829.67 697.22"/></g><g class="cls-2"><polygon class="cls-9" points="829.85 697.22 536.09 522.2 553.77 218.33 820.82 385.6 829.85 697.22"/></g><g class="cls-2"><polygon class="cls-3" points="288.88 492.06 287.44 490.08 548.54 305.85 824.25 478.71 822.99 480.87 548.54 308.73 288.88 492.06"/></g><g class="cls-2"><polygon class="cls-3" points="283.83 592.93 282.39 590.76 542.22 414.47 542.95 414.83 824.43 574.52 823.17 576.69 542.22 417.36 283.83 592.93"/></g><g class="cls-2"><polygon class="cls-3" points="382.89 750.45 381.63 748.29 643.45 586.25 643.45 275.35 645.98 275.35 645.98 587.51 382.89 750.45"/></g><g class="cls-2"><polygon class="cls-3" points="485.75 801.88 484.3 799.71 736.38 641.65 736.38 333.45 738.9 333.45 738.9 643.09 485.75 801.88"/></g><g class="cls-2"><polygon class="cls-3" points="735.48 750.45 442.26 587.7 442.44 586.97 457.78 281.85 460.3 282.03 444.97 586.25 736.74 748.29 735.48 750.45"/></g><g class="cls-2"><polygon class="cls-3" points="643.27 801.88 353.48 650.13 353.48 649.23 370.63 344.1 372.97 344.28 356.01 648.5 644.35 799.71 643.27 801.88"/></g><g class="cls-2"><circle class="cls-10" cx="879.29" cy="115.12" r="101.05"/></g><g class="cls-2"><circle class="cls-6" cx="179.24" cy="901.84" r="32.12" transform="translate(-329.19 136.7) rotate(-22.5)"/></g><g class="cls-2"><circle class="cls-6" cx="75.42" cy="324.25" r="47.28"/></g><g class="cls-2"><circle class="cls-6" cx="797.55" cy="1011.01" r="32.12"/></g></svg>